<svg width="111" height="162" viewBox="0 0 111 162" fill="none" xmlns="http://www.w3.org/2000/svg">
<rect width="111" height="162" fill="#E5E5E5"/>
<rect width="1920" height="960" transform="translate(-14 -15)" fill="#D84BA5"/>
<path fill-rule="evenodd" clip-rule="evenodd" d="M42.2018 0H74.2011V30.0615H42.433C38.3477 30.0615 35.2645 31.1021 33.1833 33.1833C31.1021 35.1874 30.0616 38.155 30.0616 42.0862V124.987H7.62939e-06V42.0862C7.62939e-06 36.9217 0.655195 32.2969 1.96557 28.2116C3.27595 24.1263 5.01026 20.5421 7.16853 17.4588C9.40388 14.2985 11.9475 11.6392 14.7995 9.48095C17.6515 7.2456 20.6191 5.4342 23.7024 4.04675C26.8627 2.65929 30.023 1.65724 33.1833 1.04059C36.4207 0.346864 39.4269 0 42.2018 0ZM110.072 30.0615H80.1209V0H110.072V30.0615ZM67.8697 161.097H35.8704L35.8704 131.036L67.6385 131.036C71.7238 131.036 74.807 129.995 76.8882 127.914C78.9694 125.91 80.01 122.942 80.01 119.011L80.01 36.1108L110.072 36.1108L110.072 119.011C110.072 124.176 109.416 128.801 108.106 132.886C106.796 136.971 105.061 140.555 102.903 143.639C100.668 146.799 98.124 149.458 95.272 151.617C92.42 153.852 89.4524 155.663 86.3691 157.051C83.2088 158.438 80.0485 159.44 76.8882 160.057C73.6508 160.751 70.6446 161.097 67.8697 161.097ZM2.62806e-06 131.036H29.9505L29.9505 161.097L0 161.097L2.62806e-06 131.036Z" fill="white"/>
</svg>
